<?xml version="1.0" standalone="no"?>
<!DOCTYPE svg PUBLIC "-//W3C//DTD SVG 1.1//EN" "http://www.w3.org/Graphics/SVG/1.1/DTD/svg11.dtd" >
<svg xmlns="http://www.w3.org/2000/svg" xmlns:xlink="http://www.w3.org/1999/xlink" version="1.1" viewBox="0 -40 882 882">
  <g transform="matrix(1 0 0 -1 0 800)">
   <path fill="currentColor"
d="M226 783c47 -38 86 -124 78 -147c-9 -23 -41 -47 -63 -49c-23 -3 -72 57 -71 75c-9 48 45 131 56 121zM656 783c-45 -38 -85 -124 -77 -147s40 -47 63 -49c23 -3 72 57 71 75c8 48 -46 131 -57 121zM865 488c8 -48 0 -120 0 -120s-44 -84 -130 -90c52 -33 89 -62 89 -69
c-2 -5 -108 -50 -183 -37c9 -22 34 -45 32 -48c-1 -2 -62 -30 -83 -31c-12 -22 -48 -81 -59 -82c7 29 11 52 3 79c12 39 55 111 66 138c31 6 79 17 91 41c10 21 -44 54 -46 54c-8 0 -39 -41 -63 -63c-33 41 -101 102 -141 102v0c-41 -1 -108 -61 -141 -102
c-24 22 -55 63 -63 63c-2 0 -56 -33 -46 -54c12 -24 60 -34 91 -41c11 -27 54 -99 66 -138c-8 -26 -4 -50 3 -79c-11 1 -45 60 -59 82c-21 1 -82 29 -83 31c-2 3 24 26 32 48c-75 -13 -181 32 -183 39c0 5 37 34 89 68c-86 5 -130 89 -130 89s-8 72 0 120
c29 -42 93 -57 93 -57s-22 38 -53 97c-18 67 27 123 48 134c89 -140 273 -211 283 -200c9 10 -62 133 -65 138c-2 6 41 51 41 51s62 57 77 57s77 -57 77 -57s43 -45 41 -51c-3 -5 -74 -128 -65 -138c10 -11 194 60 283 200c21 -11 66 -67 48 -136c-31 -57 -53 -95 -53 -95
s64 15 93 57zM534 183c0 0 -47 13 -60 11c11 -19 45 -31 52 -33c-4 -13 -19 -45 -19 -45s-28 15 -66 15c-37 0 -66 -15 -66 -15s-15 32 -17 45c6 2 39 14 52 33c-15 2 -62 -11 -62 -11s-25 44 -22 51c2 7 60 74 115 74c56 0 115 -67 116 -74c3 -7 -23 -51 -23 -51zM500 85
c0 0 7 -25 0 -43c-15 13 -28 18 -37 9c-10 -10 -14 -30 0 -40c-10 -10 -11 -11 -22 -11c-10 0 -12 1 -22 11c15 10 10 30 0 40c-9 9 -22 4 -35 -9c-9 18 0 43 0 43s20 15 57 15c38 0 59 -15 59 -15z" />
  </g>

</svg>
