<?xml version="1.0" standalone="no"?>
<!DOCTYPE svg PUBLIC "-//W3C//DTD SVG 1.1//EN" "http://www.w3.org/Graphics/SVG/1.1/DTD/svg11.dtd" >
<svg xmlns="http://www.w3.org/2000/svg" xmlns:xlink="http://www.w3.org/1999/xlink" version="1.1" viewBox="-77 0 809 809">
  <g transform="matrix(1 0 0 -1 0 800)">
   <path fill="currentColor"
d="M97 473c2 4 7 3 7 -1l-25 -211c-2 -1 1 -2 2 -2l75 10c1 2 3 0 3 -2l-15 -235c0 -3 -5 -4 -7 0l-34 167c0 1 -2 2 -3 2l-83 -14c-2 0 -4 1 -4 4zM524 790c2 3 6 0 5 -2l-144 -288c0 -2 1 -4 3 -4l233 -16c3 0 4 -3 3 -4l-445 -473c-3 -3 -7 0 -4 2l189 386c1 2 0 5 -3 5
h-214c-3 0 -4 2 -3 4zM637 300c4 1 7 -3 4 -5l-124 -104c-3 -2 -1 -4 0 -6l56 -37c3 -1 3 -4 0 -5l-321 -140c-4 -2 -5 4 -3 5l209 136c2 1 2 4 0 5l-49 38c-1 1 -1 4 0 5z" />
  </g>

</svg>
