<?xml version="1.0" standalone="no"?>
<!DOCTYPE svg PUBLIC "-//W3C//DTD SVG 1.1//EN" "http://www.w3.org/Graphics/SVG/1.1/DTD/svg11.dtd" >
<svg xmlns="http://www.w3.org/2000/svg" xmlns:xlink="http://www.w3.org/1999/xlink" version="1.1" viewBox="0 -30 897 897">
  <g transform="matrix(1 0 0 -1 0 800)">
   <path fill="currentColor"
d="M554 271c0 0 5 48 25 70c62 67 187 92 217 126c20 24 24 134 84 190c3 2 4 0 4 -2c-15 -58 14 -188 -11 -247c-28 -64 -136 -89 -181 -144c-42 -57 -15 -190 -21 -240c-5 -5 -21 -9 -40 0c-3 15 -34 26 -57 32c-2 71 -20 215 -20 215zM446 789c0 4 5 4 5 0
c18 -106 99 -636 87 -733c-32 -7 -49 -56 -89 -56c-38 0 -55 49 -88 56c-14 97 68 627 85 733zM346 271c0 0 -5 48 -25 70c-63 67 -190 92 -220 126c-20 24 -21 134 -84 190c-1 2 -5 0 -4 -2c18 -58 -11 -188 14 -247c28 -64 136 -89 178 -144c45 -57 14 -190 24 -240
c5 -5 21 -9 37 0c2 15 35 26 57 32c5 71 23 215 23 215z" />
  </g>

</svg>
