<?xml version="1.0" standalone="no"?>
<!DOCTYPE svg PUBLIC "-//W3C//DTD SVG 1.1//EN" "http://www.w3.org/Graphics/SVG/1.1/DTD/svg11.dtd" >
<svg xmlns="http://www.w3.org/2000/svg" xmlns:xlink="http://www.w3.org/1999/xlink" version="1.1" viewBox="0 -381 1582 1582">
  <g transform="matrix(1 0 0 -1 0 800)">
   <path fill="currentColor"
d="M852 496c20 -9 23 -44 7 -78c-17 -34 -46 -53 -66 -44c-19 10 -22 45 -6 79c16 33 45 53 65 43zM113 559c0 0 -26 24 -35 31c-6 5 -13 12 -20 13c-7 2 -18 1 -22 -2c-4 -2 -4 -9 -2 -13c6 -12 42 -56 42 -56s-47 -37 -58 -46c-2 -2 -6 -7 -4 -9c3 -3 16 -10 24 -9
c17 2 77 20 77 20s84 -90 128 -133s91 -87 137 -124c44 -36 91 -72 137 -102c44 -30 92 -60 139 -80c45 -20 97 -34 143 -42c44 -8 88 -5 132 -5c58 0 146 30 199 56c40 19 88 55 121 73c25 14 57 32 77 38c14 4 30 -1 44 -3c31 -2 110 -8 139 -11c12 -1 24 -2 36 -2v0
c9 0 17 5 20 13c4 8 3 18 -3 25l-2 2c-13 16 -34 36 -48 56c-26 34 -66 102 -104 150c-42 54 -97 115 -148 169c-213 225 -455 211 -456 211c-101 4 -201 -10 -305 -38c-46 -12 -114 -33 -178 -64c-108 -52 -210 -116 -210 -118zM583 426c-49 137 51 203 232 192
c203 -36 234 -212 57 -263c44 72 56 119 38 142c-34 42 -75 62 -117 70c-102 17 -193 -27 -210 -141zM773 518c-36 -51 -50 -88 -48 -112c7 -84 154 -133 265 -76c34 18 58 59 69 118c22 -67 10 -109 -21 -141c-43 -45 -125 -60 -230 -44c-69 10 -116 41 -138 83
c-18 35 -21 72 3 113c14 24 45 44 100 59zM166 512c241 99 421 149 547 156c-106 -26 -176 -75 -198 -154c-13 19 -20 40 -20 62c-40 -161 174 -382 401 -373c135 5 205 73 236 170c14 -32 21 -54 22 -66c13 48 3 105 -40 174c55 -48 104 -104 146 -168
c-17 -8 -35 -11 -51 -21c-147 -87 -290 -175 -453 -147c-176 31 -368 149 -590 367z" />
  </g>

</svg>
