<?xml version="1.0" standalone="no"?>
<!DOCTYPE svg PUBLIC "-//W3C//DTD SVG 1.1//EN" "http://www.w3.org/Graphics/SVG/1.1/DTD/svg11.dtd" >
<svg xmlns="http://www.w3.org/2000/svg" xmlns:xlink="http://www.w3.org/1999/xlink" version="1.1" viewBox="-3 0 810 810">
  <g transform="matrix(1 0 0 -1 0 800)">
   <path fill="currentColor"
d="M470 165c20 0 40 -8 57 -23l33 -28v-85s-70 -29 -158 -29v0c-88 0 -158 29 -158 29v85l33 28c16 15 37 23 57 23h1h67v0h67h1zM791 333l-44 -79c-10 -16 -116 -68 -164 -90c-9 -6 -20 2 -19 13l6 28c4 19 1 38 -7 56l-39 84c-4 17 4 36 19 38l109 20v60
c0 13 -13 24 -26 20l-155 -39c-13 0 -22 -16 -18 -32l24 -123c5 -22 -7 -44 -24 -44h-102c-17 0 -30 22 -24 44l24 123c4 16 -5 32 -18 32l-155 39c-13 4 -26 -7 -26 -20v-60l109 -20c15 -2 23 -21 19 -38l-39 -84c-8 -18 -11 -37 -7 -56l6 -28c1 -11 -10 -19 -19 -13
c-48 22 -154 74 -164 90l-44 79l35 38s-29 197 -1 236c-6 28 -7 74 4 97c16 9 72 -19 101 -33c13 28 36 65 57 83c28 0 83 -30 113 -46c20 20 53 74 80 85v0v0v0v0c27 -11 60 -65 80 -85c29 16 85 46 113 46c21 -18 44 -55 57 -83c29 14 85 42 101 33c11 -23 10 -69 4 -97
c28 -39 -1 -236 -1 -236z" />
  </g>

</svg>
