<?xml version="1.0" standalone="no"?>
<!DOCTYPE svg PUBLIC "-//W3C//DTD SVG 1.1//EN" "http://www.w3.org/Graphics/SVG/1.1/DTD/svg11.dtd" >
<svg xmlns="http://www.w3.org/2000/svg" xmlns:xlink="http://www.w3.org/1999/xlink" version="1.1" viewBox="0 -53 916 916">
  <g transform="matrix(1 0 0 -1 0 800)">
   <path fill="currentColor"
d="M267 0c20 36 25 99 23 121c-107 -7 -283 116 -188 180c-47 1 -83 36 -72 91c-30 23 -17 71 12 98c-7 27 4 62 41 94c1 57 48 106 112 132c13 24 44 42 98 50c21 9 52 17 92 6c25 10 63 21 104 0c56 8 117 -10 150 -45c41 0 75 -30 89 -57c40 2 113 -57 113 -81
c55 -21 78 -133 51 -171c0 -33 -22 -61 -46 -79c-56 -39 -124 -13 -141 -3c-18 -7 -29 -10 -44 -6c4 -10 19 -33 -6 -78c-23 -39 -93 -40 -115 -23c-28 -17 -67 -10 -92 11c-9 -55 -62 -55 -62 -55s10 -26 -19 -85c-29 -57 -100 -100 -100 -100z" />
  </g>

</svg>
