<?xml version="1.0" standalone="no"?>
<!DOCTYPE svg PUBLIC "-//W3C//DTD SVG 1.1//EN" "http://www.w3.org/Graphics/SVG/1.1/DTD/svg11.dtd" >
<svg xmlns="http://www.w3.org/2000/svg" xmlns:xlink="http://www.w3.org/1999/xlink" version="1.1" viewBox="-186 0 804 804">
  <g transform="matrix(1 0 0 -1 0 800)">
   <path fill="currentColor"
d="M422 553c-1 -8 -31 -43 -32 -55s7 -44 -1 -68c-35 32 -55 46 -63 55c7 9 12 15 8 28s-15 33 -19 36c-9 7 -66 -12 -66 -17c0 -20 29 -36 70 -72c42 -35 92 -79 91 -88c-1 -8 -87 -177 -84 -203c4 -26 20 -77 20 -77s-32 -45 -40 -40c-7 4 -5 8 -1 21c4 14 14 34 14 42
c0 6 -26 42 -26 42s6 42 8 48c1 8 9 16 14 27c4 11 51 140 51 140l-48 32s-13 -19 -25 -24c-12 -7 13 -65 13 -72c0 -5 -57 -121 -56 -131c1 -8 28 -98 27 -108c-2 -10 -26 -28 -27 -36c-1 -6 -7 -33 -15 -30c-6 2 -10 17 -1 40c8 16 17 21 16 36c-1 14 -32 74 -27 100
c7 26 43 101 43 112c0 9 -12 65 -15 74c-4 10 -16 24 -20 30c-5 6 -14 -7 -14 -7s-8 13 -15 7c-4 -6 -14 -20 -18 -30c-3 -9 -15 -65 -15 -74c0 -11 36 -86 41 -112c7 -26 -24 -86 -25 -100c-1 -15 8 -20 16 -36c9 -23 5 -38 -1 -40c-8 -3 -14 24 -15 30c-1 8 -25 26 -27 36
c-1 10 26 100 27 108c1 10 -56 126 -56 131c0 7 25 65 13 72c-12 5 -25 24 -25 24l-48 -32s47 -129 51 -140c5 -11 13 -19 14 -27c2 -6 8 -48 8 -48s-26 -36 -26 -42c0 -8 10 -28 14 -42c4 -13 6 -17 -1 -21c-8 -5 -40 40 -40 40s16 51 19 77c4 26 -82 195 -83 203
c-1 9 49 53 91 88c41 36 70 54 70 72c0 5 -57 24 -66 17c-4 -3 -15 -23 -19 -36s0 -19 7 -28c-7 -9 -28 -23 -62 -55c-8 24 0 56 -1 68s-31 47 -32 55c-1 7 20 17 25 24c4 8 -14 45 -6 64c9 17 12 45 32 76c50 76 141 71 153 71c13 0 104 5 154 -71c20 -31 23 -59 32 -76
c8 -19 -10 -56 -6 -64c5 -7 26 -17 25 -24zM249 445c5 8 -16 49 -32 49c-15 0 -36 -41 -31 -49c4 -9 15 -13 31 -13c17 0 28 4 32 13z" />
  </g>

</svg>
