<?xml version="1.0" standalone="no"?>
<!DOCTYPE svg PUBLIC "-//W3C//DTD SVG 1.1//EN" "http://www.w3.org/Graphics/SVG/1.1/DTD/svg11.dtd" >
<svg xmlns="http://www.w3.org/2000/svg" xmlns:xlink="http://www.w3.org/1999/xlink" version="1.1" viewBox="0 -357 1524 1524">
  <g transform="matrix(1 0 0 -1 0 800)">
   <path fill="currentColor"
d="M50 435c-27 -8 -43 -35 -35 -61l73 -262l220 -112l-48 161l223 -112l-47 165l222 -114l-48 167l222 -118l-46 164l220 -114l-45 162l220 -112l-134 471zM1504 502c13 -41 8 -86 -14 -124c-20 -36 -54 -65 -95 -76l-155 -44l-41 146l153 42c4 2 5 4 7 5c0 3 1 5 0 8
l-48 169c-1 4 -3 5 -5 7c-1 0 -3 1 -4 1c-2 0 -3 0 -3 -1l-152 -43l-42 144l151 44c41 13 85 7 123 -14c38 -20 65 -54 76 -96z" />
  </g>

</svg>
