<?xml version="1.0" standalone="no"?>
<!DOCTYPE svg PUBLIC "-//W3C//DTD SVG 1.1//EN" "http://www.w3.org/Graphics/SVG/1.1/DTD/svg11.dtd" >
<svg xmlns="http://www.w3.org/2000/svg" xmlns:xlink="http://www.w3.org/1999/xlink" version="1.1" viewBox="-21 0 799 799">
  <g transform="matrix(1 0 0 -1 0 800)">
   <path fill="currentColor"
d="M582 705c1 0 4 -3 3 -5l-131 -284l-134 -67l97 136c1 1 0 1 0 1l-235 -290l-16 12l52 68c2 3 3 5 3 9l-15 100c0 4 2 7 4 10l368 310c1 0 3 1 4 0zM137 201c8 2 15 2 23 0l-10 -24c-2 -1 -4 -2 -6 -2l-14 4zM197 383l13 -99v-3l-12 -16l-13 -5c-4 -1 -5 -4 -7 -8l-9 -25
l-4 -4c-7 1 -13 2 -20 2zM120 273c1 4 1 7 -2 11l-42 92c-2 3 -2 5 1 8l260 406c1 3 7 2 7 -2l-39 -302l-101 -84l44 131s-2 1 -2 0l-124 -312c-9 -2 -18 -8 -26 -13zM741 546c2 -1 4 -4 2 -6l-298 -377c-3 -3 -6 -4 -8 -4l-101 10c-4 0 -7 -1 -10 -2l-66 -55l-12 16
l282 243c0 1 0 2 -1 1l-296 -227l-12 16l65 54c3 2 6 5 6 8l10 101c0 4 2 7 4 8l432 214h3zM158 64c-8 -1 -18 0 -28 3c-1 0 -4 1 -6 1c0 1 -2 4 -2 5c10 6 18 15 22 26c5 14 2 29 -3 41c0 1 1 3 3 3c6 6 14 10 24 13c10 -20 13 -44 5 -68c-4 -8 -8 -16 -15 -24zM122 160
c-2 1 -5 3 -9 4c-8 3 -16 4 -24 3c1 2 3 5 4 8c8 9 16 16 25 20c2 0 4 0 6 -2c10 -4 18 -9 26 -16c-8 -4 -16 -8 -22 -13c-2 -1 -4 -3 -6 -4zM102 53c3 -5 6 -12 11 -17c-15 -3 -31 -3 -45 4c-43 15 -66 61 -50 104c11 29 36 49 66 53c-3 -2 -6 -5 -8 -9
c-10 -11 -15 -23 -18 -36c-4 -5 -8 -12 -10 -19c-10 -25 4 -54 30 -65c2 0 4 -1 7 -1c3 -3 5 -6 8 -7c3 -3 5 -4 9 -7zM209 181c-3 0 -5 2 -8 2l89 125l-6 -64l-8 -1c-3 0 -7 -2 -8 -4l-47 -62c-4 2 -8 3 -12 4zM193 157c3 0 7 -1 9 -1c11 -3 20 -8 28 -16
c2 -20 -4 -40 -16 -57c-20 -26 -52 -36 -81 -31c-9 12 -13 25 -13 39c22 -15 53 -11 69 12c12 16 13 37 4 54zM98 123c-5 -18 -6 -36 -2 -54c-34 28 -39 79 -12 114c26 36 78 42 114 16c7 -7 14 -14 19 -20c-3 1 -5 1 -8 2c-15 4 -31 4 -45 0c-20 7 -43 0 -56 -17
c-10 -12 -12 -28 -10 -41zM121 40c-28 36 -23 87 12 116c36 28 88 23 116 -12s23 -87 -12 -116c-35 -28 -87 -23 -116 12zM225 124c-17 23 -49 25 -72 8c-21 -19 -25 -51 -7 -72s50 -25 71 -7c23 18 25 50 8 71z" />
  </g>

</svg>
