<?xml version="1.0" standalone="no"?>
<!DOCTYPE svg PUBLIC "-//W3C//DTD SVG 1.1//EN" "http://www.w3.org/Graphics/SVG/1.1/DTD/svg11.dtd" >
<svg xmlns="http://www.w3.org/2000/svg" xmlns:xlink="http://www.w3.org/1999/xlink" version="1.1" viewBox="0 -4 801 801">
  <g transform="matrix(1 0 0 -1 0 800)">
   <path fill="currentColor"
d="M786 199c7 -55 -37 -119 -110 -152c-84 -39 -175 -22 -202 37c-28 60 19 140 103 179c48 22 100 25 139 13v0l-39 300s-55 25 -204 13c-149 -13 -199 -64 -199 -64l60 -336l-1 2c7 -55 -37 -119 -109 -152c-86 -39 -176 -22 -203 37c-28 60 19 140 103 179
c50 22 102 26 142 13h-1l-69 418c0 4 0 8 4 12c17 18 88 78 242 86c184 9 258 -39 275 -54c3 -2 5 -5 5 -9l66 -524z" />
  </g>

</svg>
