<?xml version="1.0" standalone="no"?>
<!DOCTYPE svg PUBLIC "-//W3C//DTD SVG 1.1//EN" "http://www.w3.org/Graphics/SVG/1.1/DTD/svg11.dtd" >
<svg xmlns="http://www.w3.org/2000/svg" xmlns:xlink="http://www.w3.org/1999/xlink" version="1.1" viewBox="0 -5 820 820">
  <g transform="matrix(1 0 0 -1 0 800)">
   <path fill="currentColor"
d="M807 293c-109 -49 -238 -46 -348 6c11 -103 72 -202 158 -256c-110 46 -204 136 -242 250c-65 -80 -92 -193 -69 -293c-48 109 -45 239 7 348c-104 -12 -202 -72 -256 -159c45 110 134 204 249 243c-80 65 -192 92 -293 68c109 49 238 46 348 -6
c-11 104 -71 202 -158 256c110 -46 204 -134 242 -250c66 81 92 193 69 293c48 -109 45 -239 -7 -348c104 12 202 72 256 159c-45 -110 -134 -204 -249 -241c80 -67 192 -92 293 -70zM410 360c27 -32 69 -47 109 -47c-29 3 -52 15 -69 38c-5 9 -8 14 -13 20
c42 -6 82 14 112 43c-30 -21 -67 -26 -102 -17c32 25 47 68 47 109c-4 -29 -15 -52 -37 -69c-10 -5 -15 -9 -20 -15c5 43 -15 84 -44 112c20 -28 26 -65 17 -100c-25 31 -69 46 -109 46c29 -3 52 -15 69 -38c5 -8 8 -14 15 -20c-44 6 -84 -14 -112 -42c28 20 65 25 100 17
c-32 -26 -46 -69 -46 -109c3 28 14 52 38 68c8 7 13 9 20 15c-7 -43 13 -83 42 -112c-20 29 -25 66 -17 101z" />
  </g>

</svg>
