<?xml version="1.0" standalone="no"?>
<!DOCTYPE svg PUBLIC "-//W3C//DTD SVG 1.1//EN" "http://www.w3.org/Graphics/SVG/1.1/DTD/svg11.dtd" >
<svg xmlns="http://www.w3.org/2000/svg" xmlns:xlink="http://www.w3.org/1999/xlink" version="1.1" viewBox="0 -5 819 819">
  <g transform="matrix(1 0 0 -1 0 800)">
   <path fill="currentColor"
d="M410 713c176 0 318 -142 318 -317c0 -174 -142 -318 -318 -318c-175 0 -317 144 -317 318c0 175 142 317 317 317zM425 174c74 8 133 70 133 147c0 81 -67 148 -148 148c-77 0 -141 -60 -147 -136c20 38 59 63 103 63c67 0 120 -53 120 -118c0 -44 -25 -83 -61 -104z
M289 278c0 -43 35 -77 77 -77c44 0 79 34 79 77c0 42 -35 77 -79 77c-42 0 -77 -35 -77 -77zM410 510c76 0 141 -45 172 -109c-18 102 -108 181 -216 181c-119 0 -216 -97 -216 -218c0 -106 77 -195 179 -214c-64 31 -109 96 -109 171c0 104 85 189 190 189zM465 125
c126 26 221 138 221 271c0 153 -123 276 -276 276c-105 0 -196 -57 -243 -143c48 57 120 94 199 94c144 0 259 -116 259 -259c0 -108 -66 -201 -160 -239zM410 793c218 0 396 -178 396 -397c0 -218 -178 -396 -396 -396c-219 0 -397 178 -397 396c0 219 178 397 397 397z
M410 41c195 0 355 160 355 355c0 196 -160 356 -355 356c-196 0 -356 -160 -356 -356c0 -195 160 -355 356 -355z" />
  </g>

</svg>
