<?xml version="1.0" standalone="no"?>
<!DOCTYPE svg PUBLIC "-//W3C//DTD SVG 1.1//EN" "http://www.w3.org/Graphics/SVG/1.1/DTD/svg11.dtd" >
<svg xmlns="http://www.w3.org/2000/svg" xmlns:xlink="http://www.w3.org/1999/xlink" version="1.1" viewBox="0 -7 820 820">
  <g transform="matrix(1 0 0 -1 0 800)">
   <path fill="currentColor"
d="M753 198l-169 24l24 -169l-134 105l-64 -158l-64 158l-134 -105l24 169l-169 -24l105 135l-159 64l159 64l-105 134l169 -24l-24 169l134 -105l64 158l64 -158l134 105l-24 -169l169 24l-105 -134l159 -64l-159 -64zM410 201c109 0 196 87 196 196
c0 108 -87 195 -196 195c-108 0 -196 -87 -196 -195c0 -109 88 -196 196 -196zM534 397c0 68 -56 122 -124 122s-122 -54 -122 -122s54 -124 122 -124s124 56 124 124z" />
  </g>

</svg>
