<?xml version="1.0" standalone="no"?>
<!DOCTYPE svg PUBLIC "-//W3C//DTD SVG 1.1//EN" "http://www.w3.org/Graphics/SVG/1.1/DTD/svg11.dtd" >
<svg xmlns="http://www.w3.org/2000/svg" xmlns:xlink="http://www.w3.org/1999/xlink" version="1.1" viewBox="0 0 805 805">
  <g transform="matrix(1 0 0 -1 0 800)">
   <path fill="currentColor"
d="M547 621c10 -4 21 1 22 9l16 112c2 8 -5 16 -14 19l-102 29c-8 3 -17 0 -21 -6l-48 -103c-2 -8 3 -17 13 -21zM347 653c11 5 15 16 9 24l-68 91c-4 5 -14 6 -22 2l-92 -50c-10 -4 -14 -14 -11 -20l39 -107c2 -8 14 -11 24 -5zM183 536c4 10 -1 21 -9 22l-112 16
c-8 2 -16 -5 -19 -14l-29 -100c-3 -10 0 -19 6 -22l103 -47c8 -4 17 2 21 13zM151 337c-5 10 -16 14 -24 8l-91 -68c-5 -4 -6 -13 -2 -22l50 -92c4 -8 14 -14 20 -11l107 39c8 4 11 14 5 24zM268 173c-10 3 -21 -2 -22 -10l-16 -112c-2 -8 5 -15 14 -18l100 -30
c10 -3 19 0 22 6l47 103c4 8 -2 19 -13 21zM467 140c-10 -5 -14 -16 -8 -23l68 -90c4 -7 13 -8 22 -3l92 49c8 6 14 14 11 20l-39 107c-4 8 -14 11 -24 5zM631 257c-3 -10 2 -21 10 -22l112 -16c8 -2 15 5 18 14l30 102c3 8 0 17 -6 21l-103 48c-8 2 -19 -3 -21 -13z
M664 457c5 -11 16 -15 23 -9l90 68c7 4 8 14 3 22l-49 92c-6 10 -14 14 -20 11l-107 -39c-8 -2 -11 -14 -5 -24zM468 600c112 -34 175 -152 141 -264c-33 -112 -150 -175 -262 -141c-112 33 -176 150 -143 262c34 112 152 176 264 143zM367 261c74 -22 153 20 176 95
c22 74 -20 154 -95 176c-74 22 -154 -20 -176 -95c-22 -74 20 -153 95 -176zM492 682c-157 48 -324 -42 -370 -200c-48 -158 42 -325 200 -371c158 -47 325 42 371 201c47 157 -42 324 -201 370zM335 157c-132 39 -208 179 -168 312c40 132 180 207 312 168
c132 -40 208 -180 168 -312c-39 -132 -179 -208 -312 -168z" />
  </g>

</svg>
