<svg id="svg" version="1.1" xmlns="http://www.w3.org/2000/svg" xmlns:xlink="http://www.w3.org/1999/xlink" width="400" height="400" viewBox="0, 0, 400,400">
<g>
<path fill="currentColor" d="M190.400 40.848 C 189.784 40.906,187.480 41.105,185.280 41.290 C 131.219 45.847,82.009 79.530,57.319 128.876 C 54.612 134.288,50.005 144.960,50.377 144.960 C 50.449 144.960,60.836 134.444,73.458 121.590 C 86.080 108.737,96.453 98.267,96.509 98.323 C 96.565 98.379,99.431 108.571,102.878 120.972 C 106.325 133.373,109.186 143.659,109.236 143.830 C 109.286 144.000,110.097 142.992,111.039 141.590 C 161.328 66.705,274.651 82.465,302.186 168.174 C 303.499 172.263,304.787 177.239,304.585 177.442 C 304.508 177.519,299.557 176.316,293.583 174.769 C 287.608 173.222,282.676 171.986,282.623 172.022 C 282.531 172.084,310.672 273.339,310.823 273.490 C 310.863 273.529,327.515 256.614,347.828 235.901 C 369.082 214.229,384.566 198.201,384.301 198.145 C 384.047 198.092,378.440 196.652,371.840 194.945 L 359.840 191.840 359.608 188.480 C 354.387 113.009,294.980 50.581,220.000 41.773 C 211.379 40.761,196.325 40.290,190.400 40.848 M52.186 164.082 L 15.264 201.724 21.952 203.452 C 25.630 204.403,31.232 205.851,34.400 206.670 L 40.160 208.160 40.392 211.520 C 45.609 286.940,104.825 349.233,179.840 358.215 C 253.661 367.054,322.213 325.849,349.226 256.400 C 349.517 255.652,349.697 255.040,349.625 255.040 C 349.554 255.040,339.168 265.556,326.544 278.410 C 313.921 291.263,303.551 301.737,303.499 301.686 C 303.448 301.635,300.583 291.443,297.132 279.037 C 293.681 266.630,290.818 256.347,290.770 256.184 C 290.722 256.021,289.574 257.502,288.220 259.474 C 261.816 297.923,215.600 314.899,170.841 302.591 C 139.733 294.036,112.984 270.106,100.697 239.840 C 98.396 234.172,94.980 222.994,95.415 222.558 C 95.492 222.481,100.443 223.684,106.417 225.231 C 112.392 226.778,117.323 228.015,117.375 227.980 C 117.468 227.918,89.333 126.666,89.181 126.515 C 89.141 126.474,72.492 143.379,52.186 164.082"></path>
</g>
</svg>